<svg id="Layer_1" enable-background="new 0 0 52 52" height="512" viewBox="0 0 52 52" width="512" xmlns="http://www.w3.org/2000/svg"><g><g><path d="m46.12983 29.0945-4.91613 19.07393c-.27787 1.07813-1.25013 1.83157-2.3635 1.83157h-25.70041c-1.11336 0-2.08562-.75344-2.3635-1.83157l-4.91613-19.07393z" fill="#77e244"/></g><g><path d="m45.50501 31.51875.62483-2.42428h-40.2597l.62483 2.42428z" fill="#62d333"/></g><g><g><path d="m11.48306 33.83609 2.00627 11.29212h3.24848l-1.48533-11.29212z" fill="#62d333"/></g><g><path d="m19.90452 33.83609.84244 11.29212h3.24848l-.3215-11.29212z" fill="#62d333"/></g><g><path d="m28.32604 33.83609-.32151 11.29212h3.24855l.84238-11.29212z" fill="#62d333"/></g><g><path d="m36.7475 33.83609-1.48533 11.29212h3.24854l2.00627-11.29212z" fill="#62d333"/></g></g><g><path d="m49.05693 25.05053v3.17082c0 .48082-.38978.87061-.87061.87061h-44.37265c-.48082 0-.8706-.38978-.8706-.87061v-3.17082c0-.48082.38978-.8706.8706-.8706h44.37266c.48082 0 .8706.38978.8706.8706z" fill="#77e244"/></g><g><path d="m45.17747 24.17739c-2.01939-8.7376-9.83134-15.25781-19.1828-15.25781-9.34223 0-17.15292 6.52021-19.17213 15.25781z" fill="#fc3"/></g><g><path d="m25.62246 6.38944c-.40769 0-.73846-.33077-.73846-.73846 0-2.01299 1.63751-3.65098 3.65097-3.65098.40769 0 .73846.33077.73846.73846s-.33077.73846-.73846.73846c-1.19904 0-2.17405.97548-2.17405 2.17405.00001.4077-.33076.73847-.73846.73847z" fill="#77e244"/></g><g><path d="m30.36936 9.20721c0 2.41819-1.95661 4.3748-4.37486 4.3748-2.40725 0-4.3638-1.95661-4.3638-4.3748 0-2.40725 1.95654-4.36386 4.3638-4.36386 2.41825 0 4.37486 1.95661 4.37486 4.36386z" fill="#ff4848"/></g><g><path d="m20.1811 26.25104h-10.69523c-.20385 0-.36923-.16538-.36923-.36923s.16539-.36923.36923-.36923h10.69523c.20385 0 .36923.16539.36923.36923 0 .20385-.16538.36923-.36923.36923z" fill="#fff"/></g><g><path d="m7.63298 26.25104h-.81058c-.20385 0-.36923-.16538-.36923-.36923s.16539-.36923.36923-.36923h.81058c.20385 0 .36923.16539.36923.36923 0 .20385-.16538.36923-.36923.36923z" fill="#fff"/></g></g></svg>