<svg id="Capa_1" enable-background="new 0 0 512 512" height="512" viewBox="0 0 512 512" width="512" xmlns="http://www.w3.org/2000/svg"><g><circle cx="256" cy="256" fill="#fdb441" r="128"/><path d="m291.65 133.031c31.057 23.355 51.143 60.515 51.143 102.366 0 70.692-57.308 128-128 128-12.372 0-24.333-1.756-35.65-5.031 21.403 16.095 48.016 25.634 76.857 25.634 70.692 0 128-57.308 128-128 0-58.321-39.004-107.531-92.35-122.969z" fill="#fea713"/><g fill="#fed402"><path d="m256 512c-8.837 0-16-7.163-16-16v-48c0-8.837 7.163-16 16-16 8.837 0 16 7.163 16 16v48c0 8.837-7.163 16-16 16z"/><path d="m437.019 437.019c-6.248 6.248-16.379 6.248-22.627 0l-33.941-33.941c-6.248-6.248-6.248-16.379 0-22.627 6.248-6.248 16.379-6.248 22.627 0l33.941 33.941c6.249 6.248 6.249 16.379 0 22.627z"/><path d="m512 256c0 8.837-7.163 16-16 16h-48c-8.837 0-16-7.163-16-16 0-8.837 7.163-16 16-16h48c8.837 0 16 7.163 16 16z"/><path d="m437.019 74.981c6.248 6.248 6.248 16.379 0 22.627l-33.941 33.941c-6.248 6.248-16.379 6.248-22.627 0-6.248-6.248-6.248-16.379 0-22.627l33.941-33.941c6.248-6.249 16.379-6.249 22.627 0z"/><path d="m256 0c8.837 0 16 7.163 16 16v48c0 8.837-7.163 16-16 16-8.837 0-16-7.163-16-16v-48c0-8.837 7.163-16 16-16z"/><path d="m74.981 74.981c6.248-6.248 16.379-6.248 22.627 0l33.941 33.941c6.248 6.248 6.248 16.379 0 22.627-6.248 6.248-16.379 6.248-22.627 0l-33.941-33.941c-6.249-6.248-6.249-16.379 0-22.627z"/><path d="m0 256c0-8.837 7.163-16 16-16h48c8.837 0 16 7.163 16 16 0 8.837-7.163 16-16 16h-48c-8.837 0-16-7.163-16-16z"/><path d="m74.981 437.019c-6.248-6.248-6.248-16.379 0-22.627l33.941-33.941c6.248-6.248 16.379-6.248 22.627 0 6.248 6.248 6.248 16.379 0 22.627l-33.941 33.941c-6.248 6.249-16.379 6.249-22.627 0z"/></g></g></svg>