<svg id="Capa_1" enable-background="new 0 0 512 512" height="512" viewBox="0 0 512 512" width="512" xmlns="http://www.w3.org/2000/svg"><g><path d="m109.092 177.714c-50.117-76.252-32.187-138.431-23.439-159.524 1.982-4.778 6.067-8.358 11.066-9.686 8.359-2.221 17.034 2.344 19.895 10.506 8.584 24.491 31.968 73.352 86.882 96.656z" fill="#e8ecf9"/><circle cx="154.013" cy="150.077" fill="#3cb767" r="75.313"/><path d="m402.908 177.714c50.117-76.252 32.187-138.431 23.438-159.524-1.982-4.778-6.067-8.358-11.066-9.686-8.359-2.221-17.034 2.344-19.895 10.506-8.584 24.491-31.968 73.352-86.882 96.656z" fill="#f3f5fc"/><circle cx="357.987" cy="150.077" fill="#5ec783" r="75.313"/><path d="m399.096 353.428-26.677 66.677-14.714 36.789c-11.393 28.487-38.98 47.162-69.647 47.162h-64.116c-30.668 0-58.255-18.675-69.647-47.162l-14.714-36.789-26.677-66.677z" fill="#5ec783"/><path d="m399.096 353.428-26.677 66.677c-14.164-2.451-26.817-9.292-36.519-19.075-7.172-7.242-17.644-10.082-27.587-7.912-13.424 2.921-31.028 5.381-52.313 5.381s-38.89-2.461-52.313-5.381c-9.942-2.17-20.415.67-27.587 7.912-9.703 9.783-22.356 16.624-36.519 19.075l-26.677-66.677z" fill="#3cb767"/><path d="m353.904 353.428-19.714 46.022-9.313 21.735-57.924 37.679h-21.906l-57.904-37.679-9.323-21.746-19.724-46.011z" fill="#ff6e80"/><path d="m353.904 353.428-19.714 46.022c-7.062-6.072-16.694-8.332-25.876-6.332-13.424 2.921-31.028 5.381-52.313 5.381s-38.89-2.461-52.313-5.381c-9.172-2-18.805.26-25.866 6.321l-19.725-46.012h195.807z" fill="#f9475e"/><path d="m245.047 458.864h-21.975c-12.003 0-22.856-7.152-27.587-18.185l-8.523-19.923 3.642-.451c1.54-4.251 4.341-7.792 7.872-10.263 3.531-2.481 7.812-3.891 12.333-3.891 9.042 0 17.124 5.652 20.215 14.154z" fill="#e8ecf9"/><path d="m324.873 421.184-8.358 19.495c-4.731 11.033-15.584 18.185-27.587 18.185h-21.975l14.024-38.56c1.55-4.251 4.341-7.792 7.872-10.263 3.541-2.481 7.822-3.891 12.343-3.891 9.042 0 17.114 5.652 20.205 14.154z" fill="#e8ecf9"/><path d="m233.404 338.364-10.213 28.087-10.343 13.333v15.124l-4.421 12.143c-1.54 4.251-4.341 7.792-7.872 10.272-3.531 2.481-7.812 3.891-12.333 3.891-8.792 0-16.654-5.331-19.935-13.423l.66-19.575-9.552-4.851-16.364-45.002h90.373z" fill="#f3f5fc"/><path d="m143.032 338.364h90.373l-20.555 56.544c-3.241-.57-6.301-1.17-9.162-1.79-9.942-2.17-20.415.67-27.587 7.912-2.431 2.451-5.041 4.712-7.812 6.762-.09-.24-.19-.49-.28-.74z" fill="#e8ecf9"/><path d="m368.968 338.364-16.364 45.002-8.892 10.302v14.124c-1.6 3.921-4.261 7.202-7.592 9.532-3.541 2.481-7.822 3.891-12.343 3.891-9.042 0-17.114-5.661-20.205-14.163l-4.421-12.143 2.04-13.503-12.383-14.954-10.213-28.087h90.373z" fill="#f3f5fc"/><path d="m368.968 338.364-24.976 68.688c-.09.25-.19.5-.28.74-2.771-2.05-5.381-4.311-7.812-6.762-7.172-7.242-17.644-10.082-27.587-7.912-2.861.62-5.922 1.22-9.162 1.79l-20.555-56.544z" fill="#e8ecf9"/><path d="m451.799 324.371c-.55 36.009-29.727 65.626-65.716 66.687-19.645.58-37.459-7.202-50.183-20.035-7.172-7.242-17.644-10.082-27.587-7.912-13.424 2.921-31.028 5.381-52.313 5.381s-38.89-2.461-52.313-5.381c0 0-.01 0-.03-.01l-10.162-7.572-65.526 35.559c-.68 0-1.36-.01-2.051-.03-35.989-1.06-65.166-30.678-65.716-66.687-.41-27.057 15.024-50.553 37.639-61.796v-29.647c0-37.46 13.023-71.878 34.789-98.975l.01-.01 62.446-47.012c17.884-7.472 37.439-11.753 57.945-12.133.99-.02 1.98-.03 2.971-.03 43.671 0 83.221 17.705 111.838 46.322 28.617 28.627 46.322 68.157 46.322 111.838v29.647c22.613 11.243 38.047 34.739 37.637 61.796z" fill="#7fd49d"/><path d="m203.657 363.1c-9.932-2.15-20.395.691-27.557 7.922-12.723 12.833-30.538 20.616-50.183 20.035-35.989-1.06-65.166-30.678-65.716-66.687-.41-27.057 15.024-50.553 37.639-61.796v-29.647c0-86.362 69.208-156.55 155.189-158.13-34.018 29.968-147.057 145.767-49.372 288.303z" fill="#5ec783"/><path d="m28.555 496.496c-1.892 0-3.785-.711-5.244-2.139-2.962-2.897-3.014-7.646-.117-10.608 14.53-14.855 14.266-38.763-.588-53.294-29.675-29.027-30.202-76.785-1.174-106.46 29.027-29.675 76.785-30.201 106.46-1.174 2.962 2.897 3.014 7.646.117 10.608-2.896 2.962-7.646 3.015-10.608.117-23.761-23.242-62.001-22.819-85.244.94-11.259 11.511-17.362 26.717-17.184 42.817.177 16.1 6.614 31.168 18.124 42.427 20.769 20.316 21.138 53.741.822 74.51-1.469 1.502-3.416 2.256-5.364 2.256z" fill="#6171a3"/><path d="m127.157 268.075s-66.981 33.491-101.556-21.852c-5.688-9.105-3.277-21.079 5.577-27.15 3.049-2.09 6.438-4.552 10.024-7.384 8.251-6.516 9.967-18.259 4.114-26.993-10.029-14.965-21.129-43.249-8.535-87.33l160.668 80.334z" fill="#f5ea72"/><path d="m210.809 247.991c0 23.256-17.564 42.411-40.15 44.912l-19.045-6.502-24.516-38.41 36.579-45.151c.65-.03 1.3-.04 1.95-.04 1.601 0 3.181.08 4.741.24 22.726 2.381 40.441 21.596 40.441 44.951z" fill="#f3f5fc"/><path d="m170.658 292.903c-1.65.19-3.331.28-5.031.28-24.956 0-45.191-20.235-45.191-45.192 0-24.956 20.235-45.191 45.191-45.191 1.601 0 3.181.08 4.741.24-6.821 27.117-8.182 57.375.29 89.863z" fill="#e8ecf9"/><path d="m232.044 239.009c-1.671 2.78-4.051 5.031-6.842 6.571-2.791 1.56-6.002 2.41-9.342 2.41-8.342 0-15.774-5.291-17.965-13.033-2.201-7.782-9.192-18.204-28.257-28.947l-7.982-13.593 6.982-33.028 21.596-6.572c66.136 28.848 52.363 68.618 41.81 86.192z" fill="#7c88ad"/><path d="m190.233 152.817c-8.662 15.964-16.044 33.799-20.595 53.194-12.763-7.192-30.938-14.513-56.704-21.286-58.245-15.284-80.66-50.683-89.133-78.65-5.891-19.445 9.493-38.84 30.528-38.84 14.534 0 27.067 9.553 30.758 23.086 4.461 16.384 19.645 37.469 65.407 49.222 15.683 4.032 28.807 8.503 39.739 13.274z" fill="#6171a3"/><path d="m384.843 268.075s66.981 33.491 101.556-21.852c5.688-9.105 3.277-21.079-5.577-27.15-3.049-2.09-6.438-4.552-10.024-7.384-8.251-6.516-9.967-18.259-4.114-26.993 10.029-14.965 21.129-43.249 8.535-87.33l-160.668 80.334z" fill="#f9f29d"/><circle cx="346.376" cy="247.992" fill="#f3f5fc" r="45.188"/><path d="m457.672 67.241c21.037 0 36.42 19.393 30.531 38.83-8.476 27.971-30.893 63.371-89.135 78.658-64.282 16.873-81.287 37.245-84.963 50.227-2.193 7.746-9.626 13.036-17.968 13.036-6.675 0-12.844-3.418-16.184-8.981-12.305-20.491-28.963-71.107 81.552-99.47 45.765-11.745 60.941-32.837 65.406-49.22 3.69-13.535 16.222-23.08 30.761-23.08z" fill="#7c88ad"/><path d="m225.879 338.368h-.008c-8.317 0-15.059-6.742-15.059-15.059v-15.07c0-8.317 6.742-15.059 15.059-15.059h.008c8.317 0 15.059 6.742 15.059 15.059v15.07c-.001 8.317-6.743 15.059-15.059 15.059z" fill="#5ec783"/><path d="m286.129 338.368h-.008c-8.317 0-15.059-6.742-15.059-15.059v-15.07c0-8.317 6.742-15.059 15.059-15.059h.008c8.317 0 15.059 6.742 15.059 15.059v15.07c0 8.317-6.742 15.059-15.059 15.059z" fill="#5ec783"/><circle cx="120.437" cy="323.305" fill="#f5ea72" r="15.063"/><path d="m483.445 496.496c-1.949 0-3.895-.754-5.364-2.256-20.316-20.769-19.946-54.194.822-74.51 23.761-23.242 24.182-61.482.94-85.244-23.243-23.759-61.481-24.181-85.244-.94-2.962 2.899-7.712 2.844-10.608-.117-2.897-2.962-2.844-7.711.117-10.608 29.675-29.026 77.434-28.501 106.46 1.174 29.028 29.675 28.501 77.434-1.174 106.46-14.854 14.531-15.118 38.438-.588 53.294 2.897 2.962 2.844 7.711-.117 10.608-1.459 1.428-3.353 2.139-5.244 2.139z" fill="#7c88ad"/><circle cx="391.563" cy="323.305" fill="#f9f29d" r="15.063"/><g><g><path d="m165.625 261.495c-4.144 0-7.502-3.358-7.502-7.502v-12.003c0-4.144 3.358-7.502 7.502-7.502s7.502 3.358 7.502 7.502v12.003c0 4.144-3.359 7.502-7.502 7.502z" fill="#495560"/></g><g><path d="m346.375 261.495c-4.144 0-7.502-3.358-7.502-7.502v-12.003c0-4.144 3.358-7.502 7.502-7.502s7.502 3.358 7.502 7.502v12.003c0 4.144-3.358 7.502-7.502 7.502z" fill="#495560"/></g></g></g></svg>