<svg id="Capa_1" enable-background="new 0 0 512.002 512.002" height="512" viewBox="0 0 512.002 512.002" width="512" xmlns="http://www.w3.org/2000/svg"><g><path d="m430.887 268.909c.392-.391.782-.785 1.169-1.179 11.891-12.132 32.402-1.181 28.762 15.412-8.203 37.399-26.833 72.971-55.892 102.072-81.3 81.415-212.165 81.556-293.64.316-81.33-81.096-81.402-212.773-.216-293.958 29.1-29.1 64.686-47.761 102.103-55.983 16.648-3.658 27.625 16.842 15.455 28.777-.339.332-.676.667-1.013 1.003-55.7 55.7-56.16 145.711-1.401 201.979 55.308 56.831 148.525 57.563 204.673 1.561z" fill="#ffe177"/><path d="m177.609 385.525c32.173 32.08 72.041 51.468 113.517 58.175-63.429 10.271-130.638-9.117-179.84-58.175-81.334-81.096-81.406-212.765-.217-293.954 29.103-29.103 64.685-47.76 102.102-55.981 11.353-2.493 20.068 6.243 20.604 15.834-20.377 9.859-39.477 23.241-56.382 40.147-81.19 81.189-81.117 212.858.216 293.954z" fill="#ffd15b"/><path d="m77.211 368.604h19.762c11.093-29.513 39.567-50.519 72.957-50.519 42.126 0 76.423 33.432 77.859 75.208h.069c32.78 0 59.354 26.574 59.354 59.354 0 32.78-26.574 59.354-59.354 59.354h-170.647c-39.598 0-71.699-32.101-71.699-71.699 0-39.597 32.101-71.698 71.699-71.698z" fill="#f9f3f1"/><path d="m198.423 323.467c-20.46 8.056-36.696 24.518-44.443 45.133h-19.759c-19.8 0-37.726 8.025-50.706 20.995-12.97 12.98-20.995 30.906-20.995 50.706 0 39.601 32.101 71.701 71.701 71.701h-57.01c-39.6 0-71.701-32.101-71.701-71.701 0-19.8 8.025-37.725 20.995-50.706 12.981-12.97 30.906-20.995 50.706-20.995h19.759c11.095-29.505 39.559-50.51 72.958-50.51 10.055 0 19.666 1.905 28.495 5.377z" fill="#f3eae6"/><g><path d="m348.584 55.123c-2.256 2.204-3.286 5.378-2.761 8.489l2.74 15.958c1.35 7.84-6.892 13.825-13.928 10.117l-14.33-7.531c-2.215-1.164-4.78-1.401-7.129-.721-.618.175-1.226.422-1.803.721l-14.33 7.531c-7.047 3.709-15.278-2.277-13.928-10.117l2.73-15.958c.536-3.111-.494-6.284-2.761-8.489l-11.59-11.301c-5.697-5.553-2.555-15.237 5.326-16.38l16.02-2.328c3.121-.453 5.831-2.421 7.221-5.254l7.17-14.505c3.513-7.139 13.691-7.139 17.215 0l1.72 3.492 5.439 11.013c1.401 2.833 4.11 4.801 7.232 5.254l16.02 2.328c7.871 1.143 11.023 10.827 5.316 16.38z" fill="#ffe177"/><path d="m305.748 53.021c0 10.323 2.689 20.017 7.428 28.413-.618.175-1.226.422-1.803.721l-14.33 7.531c-7.047 3.709-15.278-2.277-13.928-10.117l2.73-15.958c.536-3.111-.494-6.284-2.761-8.489l-11.59-11.301c-5.697-5.553-2.555-15.237 5.326-16.38l16.02-2.328c3.121-.453 5.831-2.421 7.221-5.254l7.17-14.505c3.513-7.139 13.691-7.139 17.215 0l1.72 3.492c-12.496 10.632-20.418 26.477-20.418 44.175z" fill="#ffd15b"/></g><g><path d="m484.73 456.084c-2.256 2.204-3.286 5.378-2.761 8.489l2.74 15.958c1.35 7.84-6.892 13.825-13.928 10.117l-14.33-7.531c-2.215-1.164-4.78-1.401-7.129-.721-.618.175-1.226.422-1.803.721l-14.33 7.531c-7.047 3.709-15.278-2.277-13.928-10.117l2.73-15.958c.536-3.111-.494-6.284-2.761-8.489l-11.59-11.301c-5.697-5.553-2.555-15.237 5.326-16.38l16.02-2.328c3.121-.453 5.831-2.421 7.221-5.254l7.17-14.505c3.513-7.139 13.691-7.139 17.215 0l1.72 3.492 5.439 11.013c1.401 2.833 4.11 4.801 7.232 5.254l16.02 2.328c7.871 1.143 11.023 10.827 5.316 16.38z" fill="#ffe177"/><path d="m441.895 453.983c0 10.323 2.689 20.017 7.428 28.413-.618.175-1.226.422-1.803.721l-14.33 7.531c-7.047 3.709-15.278-2.277-13.928-10.117l2.73-15.958c.536-3.111-.494-6.284-2.761-8.489l-11.59-11.301c-5.697-5.553-2.555-15.237 5.326-16.38l16.02-2.328c3.121-.453 5.831-2.421 7.221-5.254l7.17-14.505c3.513-7.139 13.691-7.139 17.215 0l1.72 3.492c-12.496 10.632-20.418 26.476-20.418 44.175z" fill="#ffd15b"/></g><g><path d="m461.073 129.315h-12.519c-7.027-18.696-25.065-32.003-46.217-32.003-26.686 0-48.413 21.179-49.322 47.643h-.044c-20.766 0-37.6 16.834-37.6 37.6 0 20.766 16.834 37.6 37.6 37.6h108.102c25.085 0 45.42-20.335 45.42-45.42 0-25.084-20.336-45.42-45.42-45.42z" fill="#f9f3f1"/><path d="m416.641 99.416c-19.752 5.98-34.279 24.012-35.018 45.546h-.045c-20.76 0-37.593 16.833-37.593 37.593v.009c0 20.76 16.833 37.593 37.593 37.593h-28.605c-20.769 0-37.602-16.833-37.602-37.593v-.009c0-20.76 16.833-37.593 37.602-37.593h.045c.459-13.231 6.116-25.146 14.996-33.748 8.88-8.601 20.985-13.897 34.324-13.897 4.981.001 9.781.739 14.303 2.099z" fill="#f3eae6"/></g></g></svg>