<svg id="Layer_1" enable-background="new 0 0 256 256" height="512" viewBox="0 0 256 256" width="512" xmlns="http://www.w3.org/2000/svg"><g><g><path d="m232.054 142.411c-.09-.091-.181-.181-.271-.271-4.995-4.995-13.09-4.998-18.084-.002-10.622 10.626-27.725 27.729-35.009 35.015-2.228 2.228-5.236 3.466-8.387 3.466h-36.73v-29.828h-20.439c-8.029 0-15.715 3.25-21.309 9.01l-20.218 20.819h-7.613v49.667h82.959c9.454 0 18.52-3.755 25.206-10.439l59.894-59.883c4.847-4.849 4.848-12.707.001-17.554z" fill="#fcc4ae"/><path d="m232.758 143.189c.209 3.425-.983 6.92-3.6 9.537l-59.894 59.883c-6.685 6.684-15.752 10.439-25.206 10.439h-80.064v7.236h82.959c9.454 0 18.52-3.755 25.206-10.439l59.894-59.883c4.597-4.596 4.827-11.896.705-16.773z" fill="#f2ad97"/><path d="m145.39 180.621h-26.593v-29.832h26.593c8.238 0 14.916 6.678 14.916 14.916 0 8.238-6.678 14.916-14.916 14.916z" fill="#fcc4ae"/><path d="m145.39 180.621h-26.593v-4.342h23.699c8.238 0 14.916-6.678 14.916-14.916 0-2.116-.447-4.125-1.241-5.949 2.556 2.677 4.135 6.296 4.135 10.291 0 8.238-6.678 14.916-14.916 14.916z" fill="#f2ad97"/><path d="m140.353 175.117h3.025c4.418 0 8-3.582 8-8v-2.825c0-4.418-3.582-8-8-8h-3.025c-1.105 0-2 .895-2 2v14.825c0 1.105.896 2.001 2 2z" fill="#ffd2c0"/><path d="m58.994 245.137h-33.683c-2.761 0-5-2.239-5-5v-69.372c0-2.761 2.239-5 5-5h33.683c2.761 0 5 2.239 5 5v69.372c0 2.761-2.238 5-5 5z" fill="#478cf7"/><path d="m26.312 221.137c-1.104 0-2-.896-2-2v-39c0-1.104.896-2 2-2s2 .896 2 2v39c0 1.104-.896 2-2 2zm0-47c-1.104 0-2-.896-2-2v-.372c0-1.104.896-2 2-2s2 .896 2 2v.372c0 1.104-.896 2-2 2z" fill="#5e9cf7"/><path d="m63.994 170.765c0-2.761-2.239-5-5-5h-15v54.372c0 2.761-2.239 5-5 5h-18.683v15c0 2.761 2.239 5 5 5h33.683c2.761 0 5-2.239 5-5z" fill="#377de2"/><path d="m63.994 170.765c0-2.761-2.239-5-5-5h-5v64.372c0 2.761-2.239 5-5 5h-28.683v5c0 2.761 2.239 5 5 5h33.683c2.761 0 5-2.239 5-5z" fill="#2266d3"/></g><g><path d="m185.634 63.004-9.537-25.636-13.99 20.516c-1.857 2.724-5.964 2.426-7.409-.538l-17.193-35.263-17.193 35.263c-1.445 2.963-5.552 3.261-7.409.538l-13.99-20.516-9.537 25.636c-.97 2.606-4.122 3.618-6.428 2.063l-17.026-11.487 12.885 65.478h117.395l12.885-65.478-17.026 11.487c-2.305 1.555-5.458.543-6.427-2.063z" fill="#ffa91a"/><path d="m185.634 63.004-9.537-25.636-13.99 20.516c-1.857 2.724-5.964 2.426-7.409-.538l-17.193-35.263-17.193 35.263c-1.445 2.963-5.552 3.261-7.409.538l-13.99-20.516-9.537 25.636c-.97 2.606-4.122 3.618-6.428 2.063l-17.026-11.487 12.885 65.478h117.395l12.885-65.478-17.026 11.487c-2.305 1.555-5.458.543-6.427-2.063z" fill="#ffa91a"/><path d="m137.505 22.083-17.193 35.263c-1.445 2.963-5.552 3.261-7.409.537l-13.99-20.515-9.537 25.636c-.97 2.606-4.123 3.618-6.428 2.063l-17.026-11.487 12.885 65.478h58.698z" fill="#ffc91d"/><g><circle cx="98.85" cy="37.349" fill="#ffa91a" r="8.59"/><path d="m104.834 31.193c.387.978.606 2.041.606 3.156 0 4.744-3.846 8.59-8.59 8.59-2.328 0-4.436-.93-5.983-2.434 1.259 3.18 4.355 5.434 7.983 5.434 4.744 0 8.59-3.846 8.59-8.59 0-2.416-1.001-4.596-2.606-6.156z" fill="#f79219"/><circle cx="176.159" cy="37.349" fill="#ffa91a" r="8.59"/><path d="m182.143 31.193c.387.978.606 2.041.606 3.156 0 4.744-3.846 8.59-8.59 8.59-2.328 0-4.436-.93-5.983-2.434 1.259 3.18 4.355 5.434 7.983 5.434 4.744 0 8.59-3.846 8.59-8.59 0-2.416-1.001-4.596-2.606-6.156z" fill="#f79219"/></g><circle cx="137.505" cy="21.601" fill="#ffa91a" r="10.737"/><path d="m145.314 14.247c.592 1.332.928 2.802.928 4.353 0 5.93-4.807 10.737-10.737 10.737-3.081 0-5.852-1.305-7.81-3.384 1.671 3.759 5.431 6.384 9.81 6.384 5.93 0 10.737-4.807 10.737-10.737 0-2.848-1.117-5.431-2.928-7.353z" fill="#f79219"/><g><circle cx="66.638" cy="52.874" fill="#ffa91a" r="8.59"/><path d="m69.794 44.89c1.504 1.547 2.434 3.656 2.434 5.983 0 4.744-3.846 8.59-8.59 8.59-1.116 0-2.178-.219-3.156-.606 1.561 1.606 3.74 2.606 6.156 2.606 4.744 0 8.59-3.846 8.59-8.59 0-3.628-2.253-6.724-5.434-7.983z" fill="#f79219"/><circle cx="208.371" cy="52.874" fill="#ffa91a" r="8.59"/><path d="m214.355 46.717c.387.978.606 2.041.606 3.156 0 4.744-3.846 8.59-8.59 8.59-2.328 0-4.436-.93-5.983-2.434 1.259 3.181 4.355 5.434 7.983 5.434 4.744 0 8.59-3.846 8.59-8.59 0-2.415-1.001-4.595-2.606-6.156z" fill="#f79219"/></g><path d="m135.807 105.01-8.381-13.448c-.404-.647-.404-1.468 0-2.116l8.381-13.448c.783-1.256 2.612-1.256 3.395 0l8.381 13.448c.404.647.404 1.468 0 2.116l-8.381 13.448c-.783 1.257-2.612 1.257-3.395 0z" fill="#b7022d"/><path d="m135.807 75.999-8.381 13.448c-.403.647-.403 1.468 0 2.116l8.381 13.448c.391.628 1.044.942 1.697.942v-30.896c-.652 0-1.305.314-1.697.942z" fill="#d10028"/><g><circle cx="164.706" cy="90.505" fill="#d10028" r="7.158"/><path d="m168.667 84.544c.755 1.134 1.197 2.496 1.197 3.961 0 3.953-3.205 7.158-7.158 7.158-1.465 0-2.826-.442-3.961-1.197 1.283 1.927 3.473 3.197 5.961 3.197 3.953 0 7.158-3.205 7.158-7.158 0-2.488-1.271-4.678-3.197-5.961z" fill="#b7022d"/><g><circle cx="188.328" cy="90.505" fill="#d10028" r="5.011"/><path d="m190.711 86.122c.388.712.628 1.515.628 2.383 0 2.767-2.243 5.011-5.011 5.011-.867 0-1.671-.24-2.382-.628.85 1.558 2.482 2.628 4.382 2.628 2.767 0 5.011-2.243 5.011-5.011 0-1.9-1.07-3.533-2.628-4.383z" fill="#b7022d"/><circle cx="86.681" cy="90.505" fill="#d10028" r="5.011"/><path d="m89.064 86.122c.388.712.628 1.515.628 2.383 0 2.767-2.243 5.011-5.011 5.011-.867 0-1.671-.24-2.382-.628.85 1.558 2.482 2.628 4.382 2.628 2.767 0 5.011-2.243 5.011-5.011 0-1.9-1.07-3.533-2.628-4.383z" fill="#b7022d"/></g><circle cx="110.303" cy="90.505" fill="#d10028" r="7.158"/><path d="m114.264 84.544c.755 1.134 1.197 2.496 1.197 3.961 0 3.953-3.205 7.158-7.158 7.158-1.465 0-2.826-.442-3.961-1.197 1.283 1.927 3.473 3.197 5.961 3.197 3.953 0 7.158-3.205 7.158-7.158.001-2.488-1.27-4.678-3.197-5.961z" fill="#b7022d"/></g><path d="m197.673 133.985h-120.336c-2.033 0-3.681-1.648-3.681-3.681v-7.565c0-2.033 1.648-3.681 3.681-3.681h120.336c2.033 0 3.681 1.648 3.681 3.681v7.565c0 2.033-1.648 3.681-3.681 3.681z" fill="#f79219"/><path d="m197.673 128.985h-120.336c-2.033 0-3.681-1.648-3.681-3.681v5c0 2.033 1.648 3.681 3.681 3.681h120.336c2.033 0 3.681-1.648 3.681-3.681v-5c0 2.033-1.648 3.681-3.681 3.681z" fill="#ef7816"/></g></g></svg>