<svg enable-background="new 0 0 492 492" viewBox="0 0 492 492" xmlns="http://www.w3.org/2000/svg"><g id="Master_Layer_2"/><g id="Layer_1"><g><g><g><g><path clip-rule="evenodd" d="m231.611 119.51c-2.059 0-3.862-1.509-4.171-3.607-1.686-11.456-4.617-21.408-8.475-28.778-5.016-9.581-11.654-15.069-19.729-16.311-2.304-.355-3.885-2.51-3.53-4.814s2.509-3.884 4.814-3.53c10.873 1.672 19.596 8.651 25.924 20.74 4.354 8.317 7.499 18.903 9.348 31.464.339 2.306-1.255 4.451-3.562 4.791-.207.03-.414.045-.619.045z" fill="#545454" fill-rule="evenodd"/></g><g><path clip-rule="evenodd" d="m260.909 119.51c-.204 0-.411-.015-.62-.045-2.306-.34-3.901-2.484-3.561-4.79 1.849-12.561 4.994-23.147 9.348-31.464 6.329-12.089 15.051-19.067 25.924-20.74 2.304-.355 4.459 1.226 4.814 3.53.354 2.304-1.226 4.459-3.53 4.814-8.075 1.242-14.713 6.73-19.728 16.311-3.858 7.37-6.789 17.321-8.475 28.778-.31 2.097-2.113 3.606-4.172 3.606z" fill="#545454" fill-rule="evenodd"/></g><g clip-rule="evenodd" fill-rule="evenodd"><path d="m290.618 135.875c0 .136-.003.271-.003.406-.161 7.387-4.643 14.101-11.89 19.126v.002c-8.099 5.617-19.646 9.131-32.465 9.131s-24.366-3.513-32.465-9.131v-.002c-7.247-5.026-11.729-11.739-11.89-19.126 0-.135-.003-.269-.003-.406 0-15.831 19.86-28.665 44.357-28.665s44.359 12.833 44.359 28.665z" fill="#ffc152"/><path d="m327.042 328.771c-.272 2.464-.596 4.962-.971 7.5-6.559 44.468-43.753 76.112-79.811 94.788-36.058-18.675-73.253-50.319-79.811-94.788-.375-2.538-.699-5.036-.971-7.5 21.432 13.592 49.742 21.859 80.782 21.859s59.35-8.267 80.782-21.859z" fill="#ffc152"/><path d="m328.211 308.091c.005 6.595-.369 13.483-1.169 20.68-21.432 13.592-49.742 21.859-80.782 21.859s-59.35-8.268-80.782-21.859c-.799-7.197-1.174-14.085-1.169-20.68 10.439-8.033 19.577-17.467 27.112-28.246 16.464 5.928 35.1 9.27 54.839 9.27s38.374-3.343 54.839-9.27c7.534 10.779 16.673 20.213 27.112 28.246z" fill="#636363"/><path d="m301.099 279.845c-16.464 5.928-35.1 9.27-54.839 9.27s-38.374-3.343-54.839-9.27c3.203-4.575 6.11-9.392 8.708-14.444 8.102-15.76 12.555-32.647 13.666-50 8.099 8.693 19.646 14.13 32.465 14.13 12.818 0 24.366-5.437 32.465-14.13 1.111 17.354 5.564 34.24 13.665 50 2.599 5.052 5.506 9.869 8.709 14.444z" fill="#ffc152"/></g></g><path clip-rule="evenodd" d="m285.341 183.16c46.564 8.718 85.295 33.573 105.374 72.636 12.911 25.116 16.559 53.083 12.195 81.266-30.48-4.046-58.083-14.751-79.976-31.609-10.438-8.033-19.578-17.467-27.113-28.245-3.2-4.575-6.109-9.391-8.707-14.445-8.101-15.761-12.555-32.645-13.667-49.999l-2.157-24.055z" fill="#f5f6f6" fill-rule="evenodd"/><path clip-rule="evenodd" d="m207.18 183.16c-46.564 8.718-85.295 33.573-105.374 72.636-12.911 25.116-16.559 53.083-12.195 81.266 30.48-4.046 58.083-14.751 79.976-31.609 10.438-8.033 19.578-17.467 27.113-28.245 3.2-4.575 6.109-9.391 8.707-14.445 8.101-15.761 12.555-32.645 13.667-49.999l2.157-24.055z" fill="#f5f6f6" fill-rule="evenodd"/><g><path clip-rule="evenodd" d="m370.344 296.038c-.592 0-1.18-.247-1.597-.73l-50.134-57.976c-.762-.882-.666-2.214.216-2.977.882-.762 2.214-.666 2.977.216l50.133 57.976c.762.882.666 2.214-.216 2.977-.398.345-.89.514-1.379.514z" fill="#d4d4d4" fill-rule="evenodd"/></g><g><path clip-rule="evenodd" d="m122.177 296.038c-.489 0-.98-.169-1.38-.514-.882-.763-.978-2.095-.216-2.977l50.133-57.976c.762-.882 2.095-.979 2.977-.216.882.762.978 2.095.216 2.977l-50.134 57.976c-.417.482-1.005.73-1.596.73z" fill="#d4d4d4" fill-rule="evenodd"/></g><path clip-rule="evenodd" d="m290.618 185.173c0 .211-.003.419-.003.628-.161 11.431-4.643 21.82-11.89 29.597v.003c-8.099 8.693-19.646 14.13-32.465 14.13s-24.366-5.437-32.465-14.13v-.003c-7.247-7.777-11.729-18.166-11.89-29.597 0-.208-.003-.417-.003-.628 0-24.498 19.86-44.357 44.357-44.357s44.359 19.86 44.359 44.357z" fill="#636363" fill-rule="evenodd"/></g></g></g></svg>