<svg id="Layer_1" enable-background="new 0 0 512 512" height="512" viewBox="0 0 512 512" width="512" xmlns="http://www.w3.org/2000/svg"><g id="Layer_2_00000177477044843971018210000016518087845042765208_"><g id="_08.PumpkinEmoji"><g id="Pumkin"><path d="m357.4 13.9c-5.2-7.6-15.6-12.1-31-13.3-5.2-.4-10.2-.6-14.8-.6-43.1 0-64.2 17.6-82.6 44-8.7 12.5-15.4 34.1-20.3 56.3-4.4-5.7-9.6-10.6-15.5-14.7-6.9-4.7-14.6-8.1-22.8-9.9-10.8-2.2-21.9-1.8-32.5 1.1-5.9-5.6-14.5-7.8-23.4-8.8-18.6-1.9-42 8.9-42 8.9s43 10.9 42.3 16.7c-5.6 9.5-6.2 21.5-4.1 28.2 1.9 6.2 8.5 16.4 19.1 18.6 4.3.9 12.6 1.2 20.6-7.4 8.7-9.5 9.5-21.8 7.4-30.5 2.8.1 5.7.5 8.4 1.1 3.8.8 7.6 2.1 11 4 17.8 9.9 22.3 36.9 22.3 47.4 0 3.6-2.5 22.4-2.6 23.7l-.9 10.7h121.7l-5.3-13.5c-5.4-13.8-16.4-89.4-14.1-112.9 1.8-18.5 25.5-23.7 30-24 1.6-.1 3.4-.1 4.9-.1h4.2c8.2 0 19.5 0 22.5-9.5 1.6-5.2.7-10.9-2.5-15.5z" fill="#7a9826"/><path d="m256 512c-20.3 0-37.7-7.8-52.8-23.9-7.5 4-15.9 6.1-24.4 6.1-11.1 0-21.6-3.6-31.5-10.9-5.9 1.4-11.9 2-17.9 2-27.4 0-77.4-13.9-104.7-106.6-27.6-93.6-4.4-144.2 12-166 15.3-20.4 37.1-32.7 58.1-32.7 1.5 0 2.9.1 4.4.2 7.8-10.7 27-32.1 56.6-32.1 10 0 20.3 2.5 30.5 7.5 10.8-9.9 36.1-29.2 69.6-29.2s58.9 19.3 69.7 29.2c10.3-5 20.5-7.5 30.5-7.5 29.6 0 48.8 21.4 56.6 32.1 1.5-.1 2.9-.2 4.4-.2 21.1 0 42.8 12.3 58.2 32.8 16.3 21.8 39.5 72.3 12 166-27.3 92.8-77.3 106.6-104.7 106.6-6 0-12-.6-17.9-2-9.9 7.2-20.5 10.9-31.5 10.9-8.5-.1-16.8-2.1-24.3-6.1-15.2 16-32.6 23.8-52.9 23.8z" fill="#ff8d0a"/></g><path d="m105.2 326.7 36.6 38 11.2-16.8 19.3 13.2c6.8 4.7 13.7 9.4 20.5 14.1 1.4 1 2.3 1 3.6-.1 7.2-5.8 14.5-11.5 21.6-17.3 1.7-1.4 2.8-1.3 4.6-.1 10.3 7.1 20.7 14.1 31.3 21.2 1.2.8 2.8.8 4 0l31.2-21.1c1.5-1 3.4-.9 4.8.2l10.6 8.4c3.5 2.8 7 5.5 10.5 8.4 1.5 1.3 2.5 1.4 4.3.2 12.3-8.6 24.7-17.1 37.1-25.6l2.4-1.6 10.6 16 37.5-37c-5.8 30.2-21.6 54.9-41.7 77.6l-12.1-14.1c-.7.5-1.5.8-2.1 1.3-10.7 7.4-21.3 14.8-31.9 22.2-1.3 1.1-3.1 1.2-4.5.3-8.3-4.3-16.6-8.4-24.9-12.7-1.3-.9-3-.8-4.3.1-9 5.7-18 11.2-27 17-1.4 1.1-3.4 1.1-4.7 0-8.9-5.7-17.9-11.2-26.8-16.8-1.3-1-3.1-1.1-4.5-.3-8.2 4.3-16.5 8.3-24.6 12.6-2 1.1-3.3.8-5-.4-10.3-7.3-20.6-14.4-31-21.6-.8-.6-1.7-1.1-2.7-1.8l-12.2 14.1c-33.7-33-41.9-77.4-41.7-77.6z" fill="#5b1500"/><g fill="#751100"><path d="m209.9 283.6c-29.9 12.3-57.1 4.8-84.2-9.2 15.9-20.9 31.5-41.4 47.5-62.4z"/><path d="m302.2 283.6c29.9 12.3 57.2 4.8 84.2-9.2l-47.5-62.4c-12.4 24.2-24.5 47.8-36.7 71.6z"/><path d="m278.1 321h-46.3l23.2-55z"/></g></g></g></svg>