<svg id="_x30_1_Mar" enable-background="new 0 0 512 512" height="512" viewBox="0 0 512 512" width="512" xmlns="http://www.w3.org/2000/svg"><switch><g><g><path d="m512 65.729c0-5.944-5.205-10.717-11.105-9.995-53.154 6.501-56.845 59.405-116.929 59.405-64.017 0-63.949-60.057-127.966-60.057-63.973 0-64.041 60.057-128.014 60.057-60.059 0-63.751-52.901-116.881-59.404-5.9-.722-11.105 4.051-11.105 9.995v361.16c0 16.584 13.444 30.029 30.029 30.029h451.943c16.584 0 30.029-13.444 30.029-30.029z" fill="#a9d8ff"/></g><g><path d="m512 175.197c-64.017 0-64.017 60.057-128.034 60.057s-63.949-60.057-127.966-60.057c-63.973 0-64.041 60.057-128.014 60.057-63.993 0-63.993-60.057-127.986-60.057v251.693c0 16.584 13.444 30.029 30.029 30.029h451.943c16.584 0 30.029-13.444 30.029-30.029v-251.693z" fill="#7ac0f9"/></g><g><path d="m512 295.311c-64.017 0-64.017 60.057-128.034 60.057s-63.949-60.057-127.966-60.057c-63.973 0-64.041 60.057-128.014 60.057-63.993 0-63.993-60.057-127.986-60.057v131.579c0 16.584 13.444 30.029 30.029 30.029h451.943c16.584 0 30.029-13.444 30.029-30.029v-131.579z" fill="#4ea7d8"/></g></g></switch></svg>