<svg id="Layer_1" enable-background="new 0 0 512 512" viewBox="0 0 512 512" xmlns="http://www.w3.org/2000/svg"><g clip-rule="evenodd" fill-rule="evenodd"><g><ellipse cx="256" cy="406.604" fill="#66d4f1" rx="202.257" ry="86.797"/><ellipse cx="256" cy="406.604" fill="#4fc0e8" rx="115.244" ry="49.456"/><ellipse cx="256" cy="406.604" fill="#38a8d2" rx="43.704" ry="18.755"/></g><g><path d="m222.704 21.112c48.146 84.037 149.137 205.187 71.544 282.781-41.726 41.726-110.005 41.726-151.731 0-78.217-78.217 27.616-207.079 71.528-282.804.922-1.588 2.501-2.495 4.337-2.49s3.409.92 4.322 2.513z" fill="#4fc0e8"/><path d="m157.643 166.486c1.586-3.519 5.724-5.086 9.242-3.5 3.519 1.586 5.086 5.724 3.5 9.242-7.735 17.149-15.046 36.543-16.607 55.184-1.483 17.716 2.321 34.91 16.315 48.904 2.733 2.733 2.733 7.165 0 9.899-2.733 2.733-7.165 2.733-9.899 0-17.403-17.403-22.164-38.43-20.362-59.952 1.726-20.596 9.549-41.458 17.811-59.777z" fill="#f4f6f8"/></g><g><path d="m332.157 77.073c32.67 56.023 97.471 135.377 46.383 186.465-27.874 27.875-73.486 27.875-101.361 0-51.425-51.425 16.242-135.619 46.359-186.494.929-1.567 2.496-2.458 4.317-2.452 1.822.007 3.384.907 4.302 2.481z" fill="#66d4f1"/><path d="m360.862 245.86c-2.733 2.733-7.165 2.733-9.898 0s-2.733-7.165 0-9.899c6.684-6.684 8.262-15.052 7.324-23.701-1.046-9.657-5.123-19.869-9.117-28.834-1.57-3.519.009-7.645 3.527-9.215 3.519-1.57 7.645.009 9.215 3.527 4.456 10.001 9.015 21.505 10.266 33.045 1.36 12.55-1.103 24.863-11.317 35.077z" fill="#f4f6f8"/></g><path d="m91.708 314.536c-31.798-5.686-28.922 21.09-56.158 21.09-17.059 0-24.538-19.532-16.008-34.306 15.76-27.298 60.716-15.446 75.266 8.714.621 1.032.583 2.256-.099 3.248-.684.994-1.815 1.466-3.001 1.254zm328.584 0c31.798-5.686 28.922 21.09 56.159 21.09 17.059 0 24.537-19.532 16.008-34.306-15.76-27.298-60.715-15.446-75.266 8.714-.621 1.032-.583 2.256.099 3.248.683.994 1.814 1.466 3 1.254zm-346.216-53.256c-7.127-16.122-20.038-7.522-28.247-21.74-5.36-9.284 2.92-19.493 13.641-19.492 18.77 0 26.646 25.31 20.125 41.161-.467 1.136-1.507 1.841-2.735 1.858-1.229.016-2.288-.663-2.784-1.787zm363.848 0c7.127-16.122 20.038-7.522 28.247-21.74 5.36-9.284-2.921-19.492-13.641-19.492-18.77 0-26.646 25.31-20.125 41.161.467 1.136 1.507 1.841 2.735 1.858 1.229.016 2.288-.663 2.784-1.787z" fill="#66d4f1"/></g></svg>